# xmcd
#
# Track frame offsets:
#	183
#	12628
#	28563
#	39168
#	53503
#	69625
#	88163
#	104130
#	116835
#	131263
#
# Disc length: 2009 seconds
#
# Revision: 2
# Processed by: cddbd v1.5.2PL0 Copyright (c) Steve Scherf et al.
# Submitted via: EZCDAudioConverter 7.1.5.1
#
DISCID=8407d70a
DTITLE=Davis Daniel
DYEAR=1994
DGENRE=Country
TTITLE0=Shame On Me
TTITLE1=I Miss Her Missing Me
TTITLE2=William And Mary
TTITLE3=Somebody's Gonna Lose
TTITLE4=Someone Else's Star
TTITLE5=She Could Make A Freight Train Take A Dirt Road
TTITLE6=I Saw You
TTITLE7=All Heaven Broke Loose Last Night
TTITLE8=Out Here Sits The King
TTITLE9=Tyler
EXTD=
EXTT0=
EXTT1=
EXTT2=
EXTT3=
EXTT4=
EXTT5=
EXTT6=
EXTT7=
EXTT8=
EXTT9=
PLAYORDER=
